/* XPM */
static char *_e680a6a2e0a49bc8ec0759b02052adbTQJVJG9FJTCRVbA7[] = {
/* columns rows colors chars-per-pixel */
"64 64 155 2 ",
"   c #8F8633",
".  c #928A36",
"X  c #958D3A",
"o  c #988F3C",
"O  c #97903D",
"+  c #99913E",
"@  c #9C9543",
"#  c #9F9847",
"$  c #9E9748",
"%  c #9F9948",
"&  c #A09947",
"*  c #A29C4A",
"=  c #A7A14E",
"-  c #A6A04F",
";  c #A7A04F",
":  c #A6A14F",
">  c #A7A14F",
",  c #A6A04E",
"<  c #A7A24F",
"1  c #A5A04E",
"2  c #A6A14F",
"3  c #A8A24F",
"4  c #A8A24F",
"5  c #A7A150",
"6  c #A7A250",
"7  c #A7A250",
"8  c #A8A150",
"9  c #A8A250",
"0  c #A9A350",
"q  c #A9A251",
"w  c #A8A351",
"e  c #A9A351",
"r  c #A8A352",
"t  c #A9A352",
"y  c #AAA352",
"u  c #A8A450",
"i  c #A8A451",
"p  c #A9A451",
"a  c #A8A452",
"s  c #A9A452",
"d  c #A9A552",
"f  c #A9A453",
"g  c #A8A553",
"h  c #A9A553",
"j  c #AAA452",
"k  c #AAA552",
"l  c #AAA453",
"z  c #AAA553",
"x  c #ABA553",
"c  c #A9A653",
"v  c #AAA653",
"b  c #ABA653",
"n  c #ACA652",
"m  c #A9A455",
"M  c #AAA554",
"N  c #ABA554",
"B  c #AAA654",
"V  c #ABA654",
"C  c #ABA754",
"Z  c #ABA655",
"A  c #ABA556",
"S  c #AAA656",
"D  c #ACA754",
"F  c #ACA755",
"G  c #AAA452",
"H  c #ABA855",
"J  c #ABA856",
"K  c #ACA855",
"L  c #ADA955",
"P  c #AEAA55",
"I  c #ADA956",
"U  c #ACAA57",
"Y  c #ADA956",
"T  c #AFAA58",
"R  c #AEAB58",
"E  c #AEAB59",
"W  c #AFAB5A",
"Q  c #AFAB5B",
"!  c #AFAC58",
"~  c #AFAC59",
"^  c #AFAC5A",
"/  c #AFAD5A",
"(  c #AFAC5C",
")  c #AFAD5C",
"_  c #AFAC5A",
"`  c #B0AB57",
"'  c #B0AC59",
"]  c #B0AC5A",
"[  c #B0AD5A",
"{  c #B1AD5A",
"}  c #B0AD5B",
"|  c #B1AD5B",
" . c #B1AE5A",
".. c #B2AE5B",
"X. c #B0AC5C",
"o. c #B1AF5C",
"O. c #B2AE5C",
"+. c #B2AF5C",
"@. c #B3AF5D",
"#. c #B0AD5A",
"$. c #B3B05C",
"%. c #B3B05D",
"&. c #B4B05C",
"*. c #B4B25E",
"=. c #B4B25F",
"-. c #B5B25F",
";. c #B5B35F",
":. c #B4B15E",
">. c #B5B260",
",. c #B5B360",
"<. c #B4B261",
"1. c #B5B361",
"2. c #B6B260",
"3. c #B6B360",
"4. c #B6B361",
"5. c #B5B262",
"6. c #B4B362",
"7. c #B5B362",
"8. c #B5B363",
"9. c #B6B362",
"0. c #B6B363",
"q. c #B5B461",
"w. c #B6B460",
"e. c #B6B461",
"r. c #B7B461",
"t. c #B7B561",
"y. c #B7B661",
"u. c #B5B463",
"i. c #B6B562",
"p. c #B7B562",
"a. c #B6B463",
"s. c #B6B464",
"d. c #B7B464",
"f. c #B7B564",
"g. c #B7B565",
"h. c #B6B461",
"j. c #B8B561",
"k. c #B8B562",
"l. c #B8B563",
"z. c #B8B662",
"x. c #B8B663",
"c. c #B9B663",
"v. c #B9B763",
"b. c #B9B664",
"n. c #B8B764",
"m. c #B9B764",
"M. c #B8B663",
"N. c #BAB863",
"B. c #BAB864",
"V. c #BAB865",
"C. c #BAB965",
"Z. c #BBB866",
"A. c #BAB865",
"S. c #BCBA68",
"D. c #BCBB68",
/* pixels */
"r g.a.X.$ @ * 0.g.4.4.4.4.a.B @ @ A 0.0.X.$ a.4.<.* @ % ' a.a.4.4.<.a.$.% @ * <.a.a.& ' g.a.D @ @ B d.4.4.4.4.4.<.* @ % ~ a.g.g ",
"X n B.' @ @ * a.4.4.;.;.4.a.g @ @ D l.;.+ . * k.<.* @ $ $.a.;.a.;.a.a.' @ @ * <.k.& . + ;.k.g @ @ g k.4.;.;.4.4.a.1 + # ~ N.g X ",
"X X ~ X.% & * ;.a.a.a.a.4.k.r % & D r.+ X o . = g.* % @ ' y.;.;.a.;.a.' & & * g.* X X X @ ;.D % @ r k.4.a.a.;.k.<.* % % $.! X X ",
"X X + K * B * 4.;.;.;.;.4.k.g * * g & X X o X . g * B * ! k.a.;.;.;.a.' * g * g X O X O . & g = r 4 a.4.;.4.;.;.a.* g * n + X X ",
"X X X 4 * n * 4.a.4.a.;.4.a.4 = r 4 + X X X o . & * D * ' a.;.a.a.;.a.~ * B * * . O X X O + g = * r k.;.4.4.;.a.a.* g * = X O X ",
"@ X X 4 * * * 4.;.;.;.;.;.a.r * & 4 @ . O * X X * = * & ' k.;.a.;.a.k.~ & * = * . X * + . + 4 * * n k.4.;.4.;.a.;.= * * = X . @ ",
"a.@ X 4 * & * 4.a.;.a.;.4.k.g & % r @ X ~ D.=   * = % % ' a.a.;.a.;.k.' % % = * . 1 B.~ X + g % & y r.4.4.a.;.;.;.* % & 4 X @ ;.",
"` ;.+ = * & * k.a.;.a.;.4.k.g @ & 6 o B 4.= B.% & * & % ' g.;.a.a.;.a.' & % = % % B.6 ;.K + g % & r k.4.;.a.;.a.k.* % * = + ;.' ",
"X ' @.g & * * a.;.;.a.;.;.a.g & & r D k.@   6 l.g * % % ' a.;.a.;.;.k.' & & * B l.r   @ a.K = % & n a.a.;.a.;.;.a.* & & g %.' X ",
"@ X ;.%.& & * ;.;.a.;.a.;.k.r & & D Z.@ o r . B N.* & % ' N.;.;.a.;.a.$.& & * B.g . = o % B.n % & g ;.;.;.a.;.a.a.* & % X.;.X @ ",
"k.@ O K & % * a.a.a.;.;.;.k.g & @ K * . ] l.= . K * % % $.a.;.a.;.;.a.' % @ * H . = B.' . * H % @ g k.;.;.k.;.a.;.= % & K + @ a.",
"a.;.+ = & @ * ;.;.;.k.;.4.r.r @ @ r + D k.;.l.& % r + % $.;.;.a.a.;.a.$.% @ = % & k.4.k.H O g @ @ n k.;.;.a.;.;.;.* @ & = + ;.a.",
";.a.' D & @ * a.a.;.;.a.;.a.g @ @ r ` k.;.;.;.;.g * + & ' a.;.;.;.;.y.' % @ * H ;.a.;.;.N.K g @ @ D r.4.;.a.;.a.%.1 @ % g $.a.;.",
";.;.n.' & * * a.;.a.;.;.4.a.r & & n l.4.a.a.;.a.a.* * & ~ N.;.a.;.a.a.) * * * a.a.;.;.a.a.B.H % & r k.4.;.;.;.a.*.* 1 % ' a.;.a.",
";.a.a.~ * K * ;.a.;.a.;.4.k.4 4 r r a.4.;.;.;.a.r.* K * ~ a.a.;.a.;.y.~ * B * 4.;.;.;.;.*.a.4 = = 4 k.4.*.a.*.a.a.* n * ` a.;.;.",
"a.;.a.' * g * ;.;.a.X.4.4.k.r * * g k.;.4.k.4.4.;.* g * ' a.;.%.%.;.y.~ % g * 4.a.;.a.a.a.a.n = * r a.;.a.$.a.q.q.* g * ~ k.;.a.",
";.;.a.' & & * a.k.' X = k.a.r & & D a.;.4.;.;.a.4.* & & X.g.;.@ @ a.a.~ % & * 4.a.;.;.a.;.k.g & & r k.l.= X ' k.a.* & & ~ a.a.;.",
"a.;.N.' & & * a.;.+ X X g B.g @ & N a.4.4.a.;.;.4.* & $ ' l.% X . & B.X.% % * <.;.;.a.k.4.k.n & & m Z.g X X + ' y.* & % ~ g.;.a.",
"a.;.k.' & % * 4.+ X X X X T B & & D 4.4.k.;.a.;.4.* & % X.= . O X X * <.% & * 4.k.;.a.;.;.a.g & & n ` X X o . @ ;.* * % ~ k.;.a.",
";.;.a.' & % = * . + X + X + r & $ r k.4.;.a.;.a.4.* * & g X X X X X . g * & * 4.a.;.;.a.;.a.g % @ r + X X X O . * 6 % %  .k.;.;.",
"a.;.k.' & & - & X X o X X + r & & n a.;.4.;.;.k.;.* & * 4 X X X X X X g * & * 4.;.;.a.;.;.a.g % & r + X X X X . & 1 # % ~ y.a.a.",
";.a.a.' $ @ 6 * . + X.& . + r & @ g k.;.4.a.;.a.a.* @ & 4 X X n P . X = & @ * 4.a.;.a.k.;.k.P @ & r @ . & @.@ . * = @ %  .a.;.;.",
"a.;.a.' @ @ 6 & . ' k.k.@ + r @ @ B k.;.;.a.;.a.*.* @ & g . = k.n.= . g & @ * ;.a.;.;.a.;.a.g @ @ r o @ k.k.' . & = @ # ' y.a.;.",
"a.;.a.] $ @ = * K a.o D k.@ r @ @ D a.;.k.a.;.;.;.* @ & = * N.& % B.* = & @ = ;.;.;.k.;.a.k.n @ @ r @ r.D + 4.K * = + % $.a.;.a.",
";.;.k.' & m * X.k.@ X X ~ a.= * * r k.4.;.k.;.a.;.* r * K N.1 X . 1 N.H * g & a.;.;.a.;.;.y.g = * = k.` X X + a.;.* g & ~ a.;.a.",
"a.;.k.' * D * l.@ o ;.& . %.g 4 ; m a.4.a.;.;.a.;.& D & $.g . g n . g %.* g * ;.a.;.;.N.a.y.g 4 4 g ;.. % %.O @ k.* B * ~ a.;.a.",
";.;.a.' & r 6 * X ' k.;.@ + n * * g k.a.;.k.;.;.a.& r * g X = k.y.= X g * 6 & a.a.;.a.;.;.y.g * * g + @ ;.N. .X = * r & ! a.;.a.",
"a.a.k.' @ $ 6 * D l.;.4.;.& ; & & g a.;.a.a.;.a.4.* & * = * k.a.a.y.* = & % * ;.k.;.;.a.a.a.g & & 4 % %.a.;.B.n * = % % ~ N.;.;.",
";.a.a.' & & * %.k.4.a.;.a.;.r & & n a.;.a.;.;.a.4.& * % T 0.;.;.;.;.a.U & & * 0.a.;.;.a.4.k.B & & r 4.4.;.k.;.a.;.* & % ~ y.a.;.",
";.;.N.' & & * 4.4.4.;.;.;.a.g @ & r a.4.a.;.;.k.4.* & & X.g.;.a.a.a.a.%.& & * 4.a.;.;.;.4.k.B @ & r k.;.;.a.a.;.a.* & %  .a.a.;.",
"a.;.a.' & & * <.a.4.a.a.;.k.g & & B r.4.;.k.a.;.4.* & & ' a.a.;.;.;.k.~ % % * 4.;.;.a.a.4.a.n & & r k.4.k.;.;.;.;.* % % ! a.;.a.",
"$.a.;.' & & - 4.;.;.;.;.;.a.g & & r k.4.;.K a.;.4.* & & ' a.;.a.a.;.a.X.& % * 4.;.a.P %.a.a.g & & r a.4.;.;.a.a.k.* % %  .a.;.$.",
"@ %.l.' & @ * ;.;.a.a.;.4.k.r @ @ n k.;.& . K k.;.* + % ' a.;.a.;.a.a.~ % @ * ;.k.K . * k.k.g @ @ n k.;.;.k.;.a.;.* @ % ~ N.$.+ ",
". @ k.' @ @ * ;.a.;.;.;.4.r.N @ @ n Z.1 X O X ` k.* @ # $.N.;.;.;.;.a.$.# + * a.] X X X * N.g @ @ g a.4.;.a.;.a.k.* @ % ~ a.+ X ",
"X . & ] & & * a.;.;.a.;.4.a.n & @ K 4 X O X X + ` * & % ~ a.;.a.a.;.a.' % % = ~ O X X o X g K % & g k.;.;.k.;.k.a.* & & ! & X O ",
"X o X r * D * ;.;.a.a.;.;.a.r * = r + X O X X X * = g * ! a.;.a.;.a.k.~ * n * * . + X X X + r 4 = r k.;.;.a.;.;.;.* n * = X X X ",
"o X X 6 * D * a.a.a.;.;.;.a.4 r 6 r @ . X + X X * * P & ~ a.a.;.a.;.y.' * n 1 * X X O X X + r r * r k.4.;.4.;.a.q.* n * = O X O ",
"K o X = * * * a.;.;.;.a.4.k.r & & r @ . 1 a.+ . * * * & ' y.;.a.a.a.a.' % * = * . @ ;.1 . @ r & * g k.;.4.4.;.a.q.* 1 * = X X K ",
"a.D . r & & * ;.a.;.k.;.;.k.r & & g o & a.%.;.O & 6 & & ' a.;.;.;.;.;.' % % = % + ;.%.k.& + g & & y k.4.;.;.;.;.*.* % * = . n a.",
"% k.r = * * * ;.a.;.a.;.;.k.r & & 4 & k.= X %.X.* * * & ~ N.;.a.a.;.a.! % % = * ' X.X 4 k.& r & & y k.;.4.a.4.a.a.* & * = 4 k.% ",
". & N.K & & * a.;.;.a.;.;.a.r & & r l.D X @ X @.4.& & & X.l.;.a.a.;.N.' & & * a.;.o O . g N.g & & 4 a.a.;.;.;.a.a.* & % ~ B.* . ",
"! . 1 ' & & * a.a.;.a.;.;.a.r & & D ] . * l.@ + ;.* & & ' l.;.;.;.;.y.' & & * 4.+ + g.= . ! P @ & g k.;.;.a.;.;.a.* & % X.* . ! ",
"k.K X g & & * a.a.;.a.;.;.a.g & & m o & k.a.;.X * 4 & @ X.k.a.a.a.;.a.$.% @ = % X ;.a.a.& O g % % g a.;.k.a.;.a.;.* % * g X K N.",
";.k.4 = & @ * ;.;.;.a.4.;.k.g @ @ ; * r.a.4.k.T * * @ % ' a.;.a.;.a.a.~ @ @ 1 1 ' y.;.a.a.* g @ @ y N.;.;.;.;.a.a.1 + & = 4 a.a.",
"4.;.l.' & @ * l.a.;.;.;.;.k.r @ @ n a.a.;.a.;.a.;.* @ & ' a.;.a.a.;.y.~ % @ * 4.a.;.a.;.a.y.n @ + y k.;.;.a.;.;.q.1 + % ~ a.;.;.",
"a.a.a.' & * * 4.a.;.;.4.;.r.r * & g y.;.a.;.;.;.a.* * & ' k.;.;.;.;.a.~ * * * ;.;.a.;.a.;.y.g * * n k.r.a.;.;.a.<.* = & ~ a.;.a.",
";.;.k.] & D * a.a.;.4.4.4.k.r 4 r r a.;.;.a.;.a.4.& g * ' a.;.;.a.;.a.~ * n * ;.a.a.;.;.;.y.g = = 4 k.;.;.;.*.a.*.* n * ! k.;.a.",
";.a.l.' * g * 4.;.4.;.4.;.k.r 4 * r N.;.k.;.;.a.;.* g * ~ N.a.a.;.a.;.$.% g * a.;.;.a.;.a.y.g = * r k.4.a.*.a.q.a.* g * ! a.;.a.",
"a.a.k.' & & * 4.a.;.+ g k.a.g & & y k.4.4.4.a.;.;.* * & ' a.k.& % a.g.~ % & * 4.a.;.k.;.;.k.g & & m k.k.n + ;.a.;.* & & ' a.a.;.",
";.;.a.' & & * g.;.@ X X ! N.4 % & g k.;.4.4.;.;.4.* & & ' B.* X . 1 B.~ % % * 4.;.;.a.a.;.;.g & & r B.K X . @ ;.a.* & % ~ g.;.a.",
";.a.k.' & & * a.@ X X X o ' g & & g a.4.4.;.;.a.0.* & & @.r . o O . r X.% & * 4.a.;.a.;.k.k.g & & g X.+ X o . % a.* & & ~ k.;.a.",
"a.;.a.' % % = * . o X o . @ r & & g a.;.4.a.a.;.4.* & & g X X X O O X B * & * 4.a.;.;.a.;.k.g % & r @ X + X X . 1 1 & & ~ k.;.;.",
";.;.N.~ & & - * X X X X X + 4 & & g k.4.a.k.;.;.4.* * * 6 X X X X X X = * & * 4.;.;.a.;.;.a.g % & r + X X X o X & 1 % %  .g.a.a.",
";.a.a.' % @ 6 * X X P @ . @ g @ @ m k.4.;.;.a.a.4.* @ & 6 o X 4 1 . O 4 & @ * 4.k.;.;.a.a.k.n % @ r @ . @ P X . * = @ # ~ y.;.;.",
"a.a.k.' @ @ - &   K B.;.+ + g @ @ B k.;.4.a.a.;.4.* @ % r X & l.y.* . 4 & @ * ;.a.;.k.a.;.k.g @ @ r o o ;.B.D . * = @ # ' y.;.a.",
";.;.k.' & @ - & r l.# ` @.@ * & @ n a.;.k.;.;.;.4.& @ & - @ l.6 = N.# = & @ 1 ;.;.;.a.;.;.k.g @ @ r + ;.] @ l.r % = + % $.a.;.a.",
"a.;.a.` & g * ~ k.& . X ;.;.= * * g k.;.4.a.4.a.;.* g * n a.H . . g a.n * g % a.a.;.a.;.;.N.g = * 4 ;.&.O . % B. .* g % ~ a.;.a.",
"a.;.k.] * H * g.* X T @ X a.g 4 = g k.a.a.;.;.;.;.* g % %.! . = = . ! %.* B * *.;.a.;.a.;.y.g 4 4 g ;.X + ! . & N.* B * ~ a.;.;.",
";.;.k.] & r 1 6 . K B.;.+ @ g * 1 4 a.a.;.;.;.a.a.* = 1 n O & N.a.& X n * = * *.;.;.a.;.a.y.g * * g # O ;.B.H . = = = % ` a.;.a.",
"a.;.a.] & % = % 6 l.<.a.' @ 4 & % n a.;.r.a.;.k.;.* % % 1 @ a.a.a.k.& = * % * a.a.;.;.a.;.a.n % & 4 @ ' a.4.N.= % = % %  .y.;.a.",
"a.;.k.' & & * X.a.;.a.;.k.;.= & % g k.;.;.a.%.a.;.* & & H a.a.;.;.;.a.H % % * 4.a.;.a.;.;.a.g & & 6 X.k.;.a.;.a.' 1 % %  .a.a.*.",
";.;.a.' & & * g.;.;.a.a.a.k.g @ % n k.;.a.a.;.a.4.& & & $.a.;.;.a.;.a.$.% & * ;.;.a.;.a.;.k.n & & D k.a.a.;.;.;.;.* % % ~ y.;.a.",
";.;.a.' % % * ;.a.;.4.*.4.k.r & % 4 a.a.;.;.4.a.0.* & & ~ y.a.;.;.;.a.~ % % * 4.;.;.a.;.;.k.g & & g k.a.*.a.*.a.;.* % %  .a.;.a.",
"a.a.a.' % * * *.a.;.4.4.4.k.r & % g a.;.*.a.<.a.4.* & * ~ a.*.*.a.a.a.~ & % * 4.a.4.;.4.;.a.g % & g a.;.a.*.a.;.a.= % % ~ y.a.*."
};
