/* XPM */
static char *_e0a2832b26d46ace3776d6a0986b536Owb3qrJyMN2AsXTo[] = {
/* columns rows colors chars-per-pixel */
"64 64 214 2 ",
"   c None",
".  c #030303",
"X  c #0B0A0A",
"o  c #100D0E",
"O  c #171414",
"+  c #321F0D",
"@  c #221E1F",
"#  c #29211C",
"$  c #292425",
"%  c #2C2628",
"&  c #322B2D",
"*  c #352D25",
"=  c #3C322B",
"-  c #362E31",
";  c #3B3234",
":  c #3E3538",
">  c #4C321A",
",  c #58381B",
"<  c #463525",
"1  c #543F29",
"2  c #43363B",
"3  c #453A3D",
"4  c #463B32",
"5  c #5B432A",
"6  c #5B4B35",
"7  c #52443D",
"8  c #5B4D3A",
"9  c #574933",
"0  c #5F513B",
"q  c #6A4928",
"w  c #644C33",
"e  c #615037",
"r  c #63533C",
"t  c #6B593E",
"y  c #69533B",
"u  c #71593B",
"i  c #463D40",
"p  c #4B3E42",
"a  c #4C4145",
"s  c #51464A",
"d  c #54474B",
"f  c #5F5240",
"g  c #645542",
"h  c #6C5B44",
"j  c #6C5B49",
"k  c #655547",
"l  c #735E44",
"z  c #745D45",
"x  c #665953",
"c  c #6D614D",
"v  c #736146",
"b  c #7B6345",
"n  c #73634C",
"m  c #7A654C",
"M  c #7E694C",
"N  c #726653",
"B  c #7D6B53",
"V  c #7F6D59",
"C  c #796854",
"Z  c #7E715D",
"A  c #6E6452",
"S  c #7F7565",
"D  c #836A4B",
"F  c #866A49",
"G  c #8C714E",
"H  c #826D52",
"J  c #886F54",
"K  c #857154",
"L  c #8C7354",
"P  c #83735B",
"I  c #8C765A",
"U  c #8B795D",
"Y  c #907654",
"T  c #957955",
"R  c #9B7B54",
"E  c #947C5B",
"W  c #9A7E5B",
"Q  c #937657",
"!  c #9A794F",
"~  c #A37F54",
"^  c #827561",
"/  c #8D7C63",
"(  c #857B69",
")  c #8C7E69",
"_  c #947E62",
"`  c #9A7F67",
"'  c #9C825E",
"]  c #A4855C",
"[  c #AB875A",
"{  c #AB895D",
"}  c #A78459",
"|  c #B28D5E",
" . c #8F816B",
".. c #958164",
"X. c #9C8464",
"o. c #94846C",
"O. c #9C8569",
"+. c #9D896C",
"@. c #97886F",
"#. c #9D8C74",
"$. c #9C8E79",
"%. c #948776",
"&. c #9E917B",
"*. c #9F9177",
"=. c #A28663",
"-. c #A48A65",
";. c #AA8C64",
":. c #A2866A",
">. c #A38B6C",
",. c #AA8D6B",
"<. c #B28F61",
"1. c #AD9166",
"2. c #AD926C",
"3. c #A6906F",
"4. c #B39265",
"5. c #B3956B",
"6. c #B9966E",
"7. c #B6996D",
"8. c #BB9B6E",
"9. c #BA9465",
"0. c #A38E71",
"q. c #A68E76",
"w. c #A59174",
"e. c #AB9474",
"r. c #A3947B",
"t. c #AA977C",
"y. c #AC997D",
"u. c #A7987F",
"i. c #B29474",
"p. c #B49A74",
"a. c #BA9C74",
"s. c #B3967A",
"d. c #B39C7B",
"f. c #BB9D7B",
"g. c #B99778",
"h. c #BEA074",
"j. c #BCA27C",
"k. c #B6A27E",
"l. c #C19E6F",
"z. c #C19E73",
"x. c #C19F7C",
"c. c #C2A375",
"v. c #C3A47C",
"b. c #CAA57B",
"n. c #C5A97D",
"m. c #CAAB7C",
"M. c #D1AD7C",
"N. c #998F81",
"B. c #A49681",
"V. c #A69983",
"C. c #AB9C84",
"Z. c #A59B8A",
"A. c #AB9E8A",
"S. c #B39E82",
"D. c #BA9F85",
"F. c #AA9F90",
"G. c #ADA18C",
"H. c #B5A284",
"J. c #BAA483",
"K. c #B3A48C",
"L. c #B9A68B",
"P. c #BCAA8D",
"I. c #BEA886",
"U. c #ADA292",
"Y. c #B3A692",
"T. c #B6A993",
"R. c #BBAC94",
"E. c #B5AA9A",
"W. c #BBAE99",
"Q. c #BFB097",
"!. c #BEB19C",
"~. c #BCB2A3",
"^. c #C3A583",
"/. c #C4AA85",
"(. c #CBAC84",
"). c #C1A58A",
"_. c #C3AC8A",
"`. c #CAAD8B",
"'. c #CAA783",
"]. c #D0AF82",
"[. c #CDB186",
"{. c #C7B08D",
"}. c #CDB38D",
"|. c #D4B485",
" X c #D2B38C",
".X c #D9B98E",
"XX c #C2AD92",
"oX c #C4B295",
"OX c #CBB393",
"+X c #C3B49C",
"@X c #CAB99C",
"#X c #CAB79B",
"$X c #D2B593",
"%X c #D2B994",
"&X c #D9BC95",
"*X c #D3BC9C",
"=X c #D8B795",
"-X c #C2B6A4",
";X c #C4B9A4",
":X c #CBBCA4",
">X c #CABFAC",
",X c #C5BBA8",
"<X c #CCBFAC",
"1X c #DCC19C",
"2X c #CEC1AB",
"3X c #D2C4AB",
"4X c #D5C1A5",
"5X c #CCC2B1",
"6X c #D2C6B2",
"7X c #D6CAB4",
"8X c #DACBB4",
"9X c #DBCFBB",
"0X c #D2C9BB",
"qX c #DDD1BD",
/* pixels */
"                                                                                                                                ",
"                                                                                                                                ",
"                                      ^.j.n.c.n.[.&X                &X1X    &X[.M..X|..X1X                                      ",
"                                    a.5.8.a.c.a.7.p.f.j.p.p.[._./.^.n.n.(..X.Xm.m.|.m.M.m..X                                    ",
"                                `.i.;.8.6.;.-.2.,.O.>.y.H.H.H.e.H.H.J.I.J.^.[.[.[.c.;.1.l.b.=X                                  ",
"                              OXc.;.4.c.;._ =.e.r.y.y.A.R.XXK.y.d.XXR.R.L.P.OX{.%X^.X.] 9.c.|.                                  ",
"                              e.;.{ 4.4.-.=.S.T.y.>...O.O.>.y.j.^._.r.0.+.0.J.oX*XOXp.-.;.7.l.                                  ",
"                              2.;.5.5.W I >.y.t.O.L m 1 9 w D 4.7.G w 1 y m L e.OXOX_.,.] { 8.b.                                ",
"                              i.{ 5.{ T L 0.y.>.F / I + = > w ! W w , # < q.m Y f.{.OXX.W ] l.9.n.                              ",
"                            g.4.{ 4.] L I 3.,.X.D z D q > < 5 F L u q , w / z L 2.^.(.i.] ;.4.<.a.$X                            ",
"                          p.=.{ | { R b ..,.-.E Q J J H u u z F F b u F Q =.>.,.p.8.n.j.E ' R <.<.l. X                          ",
"                        f.=.} | ;.] D h X.e.,.+.:.O.Q L z z j k k j z D E X.w.H./._.(.(.=.L R ~ | <.8.(.                        ",
"                        3.] [ ;.{ ] D ` y.t.r.y.O.G k 7 i 3 2 2 2 i p s k C Q d.@X1X#X&X_.E T R } { <.6.}.                      ",
"                      J.;.[ [ 4.{ T O.K.K.A.B...L 7 ; ; ; 3 i i d d p i p p H ' P.3X8X3X4XJ.X.R ~ R 4.6.`.                      ",
"                      e.{ [ { 7.s.S.R.W.T.Y.B._ D ; ; ; - ; : 3 d s i 2 i p x Q +.P.2X:X3X7XoXi.] ~ 4.9.'.                      ",
"                      { { [ { J.+X,X;XT.A.C.0.E D ; - O O O & - ; ; @ O % 2 x H E R.2X7X2X6X8X:Xp.T } | z.                      ",
"                    5.[ [ ~ ,.R.;X-XU.E.K.K.r...T r $ . . X $ & & & . . X 3 M G ..u.oX2X7XqX9X9X@XW T | 9.'.                    ",
"                    ;.[ [ ~ _ V.W.F.F.Y.A.V.q.C.>.X.b 4 O X $ & - $ X $ f D E w.P.P.@X2X:X:X7XqX9Xd.! ! | b.                    ",
"                    2.R ! F D $.Y.F.U.A.A.C.y.H.H.y.d.=.H 8 ; = 4 7 n _ >.e.H.oXR.oX+X:X2X:X+X6X7X0.G ! ,.                      ",
"                        Q H ^ F.~.E.E.W.K.A.R.L.P.R.H.r.f.5.R F L ] 7.j.d.K.oXQ.P.Q.+X!.2X:X;X,X9XR._                           ",
"                              U.F.U.U.A.L.T.R.R.oXD.T.R.J.J.2.E =.,.f._.L.XXP.L.L.K.Q.~.-X5X7X2X9X                              ",
"                              N.%.U.E.Z.U.E.T.A.W.Y.L.L.d.J.i.,.,.f.p.f.XX@X+XR.Q.Q.T.T.~.5X5X5X0X                              ",
"                                S S Z.Z.N.V.T.K.T.K.S.d.e.,.L z H O.i.k.S.K.+XT.-X!.!.G.Z.-X~.5X                                ",
"                                  N N C C %.$.%.( P K m h 6 < * = 1 j J ` U ^ / / @.o.P Z r.U.                                  ",
"                                    N k 0 0 0 6 6 r v H P ..>.+.>.O._ I L M l t t t r v P                                       ",
"                                        c k g g t n Y 3.k.H.P.P.H.P.J.H.d.O.L K L P P                                           ",
"                                            %.Z h v n .. . .&.r.#.V.V.#./ H m B @.                                              ",
"                                          S g 0 8 6 8 8 6 0 g j 8 g r r 6 0 0 r r N                                             ",
"                                        N r 6 6 9 9 9 9 9 8 6 8 8 f g g h v M D M M ..k.                                        ",
"                                    c r 6 9 6 0 6 0 r h c N c c N Z ) o.#.e.>.2.;.;.1.8.c.[.                                    ",
"                                S h 6 e t v b b G U @.r.&.r.r.+.@.V.K.L.H.k.k.7.a.8.8.8.c.h.m.                                  ",
"                              0.K D G G L E ' ' +.e.y.Q.Q.H.r.G.G.T.!.!.R.oXQ.k.k.h.a.1.9.8.8.n.%X                              ",
"                            e.-.1.1.;.{ ' ' ] -.X.r.r.G.R.G.r.G.!.!.R.Y.Q.+XL.k.k.h.7.] 1.7.h.c.c.m.                            ",
"                          j.5.5.8.7.1.' ' ' X.+.>.w.r.&.G.*.B.Q.!.G.T.2XT.K.H.J.h.j.j.3.] 1.7.h.h.h.7.1X                        ",
"                        i.7.7.7.8.8.h.  t.X.' X.>.0.C.C.C.V.G.U.!.W.!.T.Y.Y.L.J.j.h.h.I.k.p.1.1.7.c.h.n.(._.                    ",
"                  n.a.2.a.h.8.7.h.j.    3.-.X.' w.@.&.B.B.B.G.V.Y.Y.G.V.Y.Y.P.H.{.j.n.}.    p.1.4.7.h.c.j.n.(.%X                ",
"              d.2.5.a.a.n.a.a.n.{.    k.>.-.X.+.*.+.G.u.u.Z.G.G.G.K.u.*.Y.!.Y.k.I.I.j.[.%X    J.p.7.7.a.a.n.(./._.:X            ",
"          L.d.p.i.p.^.a.2.a.          3.-.-.3.w.w.G.G.&.&.u.u.C.L.C.*.C.Q.P.Q.P.H.k.j.n.[.          2.{ 5.^.'.n.(.OX:X          ",
"        R.H.J.p.i.s.^.a.5.          H.-.-.>.w.+.u.Z.&.C.u.C.u.*.*.u.$.&.B.Q.T.R.P.k.k./.n.%X          1.a.'.v.x.^.{.OX4X        ",
"      P.H.g.^.f.0.s.^.^.v.          e.>.X.>.w.*.G.B.&.@.*.*.@.o.@.&.*.G.G.T.T.P.H.J./._.n.}.          e.f. Xf.>.2.a.`.&X4X      ",
"    L.s.g.^.^.s.y.D.^.'.n.          -.-.X.+.r.*.*.#.$.$.L.Z.G.C.u.V.G.G.Y.R.R.L.L.H._._.}.$X        d.,.). X^.>.3.2.x.$X`.*X    ",
"    D.^.x.'.f.    XX/.'.(.        p.3.-.w.r.r.t.K.V.r.B.T.T.K.Z.G.C.G.G.R.Z.T.+X;X!.@XoX}.$X1X      J.a.'.$X      H i.'.`.=X    ",
"    f.^.'.j.d.      OXOX          e.3.3.r.w.y.C.T.&.V.B.Y.G.K.$.&.$.R.V.K.#.r.r.L.Q.R.*X%X}.&X          OX          P x.b.$X    ",
"    ).'.'.a.                      r.-.+.+.K.H.G.T.C.K.G.V.Z.G.G.Y.&.Q.Y.L.R.+.r.R.P.P.@XOX}.%X                      m i.'.      ",
"                                    3.3.w.H.V.r.G.*.u.Z.B.Y.&.G.Y.V.T.~.&.T.K.P.:XoXP.{.{.{.%X                                  ",
"                                    / O.e.y.*.G.Q.@.*.W.E.!.%.G.E.E.E.~.Y.Y.T.;X!.@XoX{._.}.                                    ",
"                                    o...+.+.r.H.G.@.G.R.G.E.G.G.G.U.E.~.-X;XV.+XQ.+X#X{.}.1X                                    ",
"                                      U ..w.J.G.H.u.Y.E.W.G.Y.Y.G.!.E.B.R.,XK.R.L.Q.oX_.[.                                      ",
"                                      Z V 0.y.r.y.u.r.K.R.Y.W.T.G.Q.Q.u.Q.+XL.P.P.J.J.[.}.                                      ",
"                                       .v B ..+.e.e.e.y.P.P.K.k.k.P.P.d.k.P.I.d.p.I.j.h.                                        ",
"                                      P v h v B B ....+.e.e.e.p.d.d.k.k.e.y.d.e.>.2.h.h.'.                                      ",
"                                      ' L ' L M v v n ..3.+.w.w.3.3.3.y.e.p.2.2.-.1.m.c./.                                      ",
"                                      e.;.p.;.E G v t Z                 G...Y 3.5.7.h.n. X                                      ",
"                                      e.5.5.8.4.1.-.Z                     ..' 7.7.7.7.8.m.                                      ",
"                                      e.2.5.c.8.7.j.7.u.                  -.3.h.7.h.h.8.n.                                      ",
"                                      +.E ,.a.4.h.j.7.p.                w.' ;.h.8.7.h.h.f.^.                                    ",
"                                    ,.E Y Y Q Q 2.1.] 2./.            d.X.T ' ' W =.;.1.2.g.).                                  ",
"                                s.,.>.:.W ' _ =.;.2.7.a./.            e.-.-.;.-.:._ =.5.x.D.g.).                                ",
"                              S.q.q.,.` :.` _ ,.,.i.j.v.{.            w.O.,.-.-.,.:.:.,.i.J.XX).OX                              ",
"                              s.q.s.i.g.g.` ,.s.i.f.f./.OX              0.>.,.i.g.s.` f.x.^.XX).$X                              ",
"                              s.,.i.5.x.g.:.g.D.).^.x.`.                w.,.,.i.'.'.:.g.'.|.'.D.`.                              ",
"                                ,.g.6.z.6.,.6.v.'.v.                      ,.,.g.z.x.,.6.b.x.`.^.                                ",
"                                              v.                                                                                ",
"                                                                                                                                "
};
