/* XPM */
static char *_710dddfa0464e419d4e79f7b5868b45huIVNFOU4clz0ho2[] = {
/* columns rows colors chars-per-pixel */
"64 64 50 1 ",
"  c #65742E",
". c #6D7E2D",
"X c #717E2D",
"o c #6D7D33",
"O c #6F7E38",
"+ c #727E31",
"@ c #6D8027",
"# c #6F812E",
"$ c #74832D",
"% c #78872E",
"& c #75882F",
"* c #7A892D",
"= c #6E8130",
"- c #758434",
"; c #798635",
": c #778936",
"> c #7C8B35",
", c #75853B",
"< c #7A8639",
"1 c #778839",
"2 c #7C8B3B",
"3 c #7D9037",
"4 c #7E913B",
"5 c #778640",
"6 c #798641",
"7 c #7C8C42",
"8 c #7F8F48",
"9 c #7F9040",
"0 c #81912F",
"q c #818E36",
"w c #818E3D",
"e c #839234",
"r c #83923C",
"t c #88953E",
"y c #85983F",
"u c #8C9B3C",
"i c #828E41",
"p c #828D48",
"a c #849242",
"s c #899545",
"d c #879947",
"f c #8C9A44",
"g c #839349",
"h c #8A9648",
"j c #879848",
"k c #8C9A4A",
"l c #919546",
"z c #929649",
"x c #909E49",
"c c #91A041",
/* pixels */
"4222111111119a99=-129211-241129922ww<;<244179977157944124a1= ,55",
"o-127999911129gd===1211=-1112999<>ww2><w3314987559972:==#:=.O,55",
" o798798g91119ad42129992129112912wwiwwas1:117715777111#@:1=,,88,",
"O5885555d4111994g99299994971111=2ww2wwww3111277,,,,1131:9951788,",
"58755,5822124211911-11122971999=<;;;++;X31127951o=,1143285,o,991",
"85,,,5881114971=911-12221114gkd9iw><<>;+23239775,,5141::5,oo,gdg",
"71,:7gg91112792122222gii1199dkj1swwwww<>::112715,172211:O,,,19aa",
"91-19d939411129411:1247i2211494o<>+;<<>+:::151,,,5779131 O,,=::#",
";ii++ww<g2-+2ssw%%;>>+O<*>qqq*%%+:22==141-1=-,17qqwtapii,=14g91-",
"2ii2<wi2waw;>iawqqq><<+<>qerqqq>2241##-1=,-,=:19$;><qqO<91124741",
"w<wsswww2asw<wiw;;;$;+<<qqqqewq>994:##-4=111:-11qq<<<w<ig9211499",
"2+;is<+<waswwiw>qq;;+qiw>**>>qq>121-=-494441:=::wqqq<wipd921224g",
"w++as<+;aawwisw+iai<>asa>;;*wwq>::1131491133::3:qqq><<2<99999999",
"i<;wiw22sswwshaX+7w+;rtqr2>>wrwq1:12131:@#:3334drwqw22w214g99999",
"hi<;2sswasawisw<+<2-$wr*sw<<wrw294411::1@&&3344yrwwrww72:199999g",
"hhwX,hhwwsswwwsw<is2rlxqs<;;2w2;d41::114::333>33q>qw2<---27424gd",
"rfq>st>wi2<iaw2wwiaatiip>qw>>>tkrq;;<<7i+2w2is<Xppi75,,,9dsw<wss",
">sq>sr;>w<>wiw<qiiawwqwiqww>qwtsrwq<wwwi<wiwwiw+226<2,,129i>>wiw",
";r2>w>%>w>>wwq<<ssiw<;wwwq>wwrrwrrwqww2<+ww222<;<O<<26<62a2-;ww<",
"%rw>q;%rw<<waw<wwiww;;>w>%;>qr>%re<www<<++w<<;<2wi27277w22;-;ww;",
";rr>r>;tww<wsi22<ww><<ww>>;>4r>-rwqqw<<+;<ww<<qipliw6wwwww<+<iw<",
";rr>tw>tswwasawa><wwq2wi>>qwrtr>rqqww2<<iiwpiiihzlllww<iwww><www",
">r>>sr>rs22asw2a<wwsww<q>qwrrrstswwqwiiihiwaiiihllllwwww<iw<;2ww",
">r>>st>wi<>aaw22<wspiw<+;>wr>>rdfrwqiihgzw;wi2qillwwwwqq>wi>+;ww",
">qqqeeuxe3444199i422111,::298888ssi<whkplutss><<i6iiiiq;wqqwq2ww",
">;%%*eee334>7471<229994234499999ww2;;isirqraa<<2piO<<2q;erqqqwrw",
"sw;%etq%33>24171=17a999499999717+<w;;<wa;%qai<<<iO+;;>q;eee0>qrs",
"aw>>req*:>321117224997114449175,;2ww;2is;;qwa2;<iw<+;>;;e00*%%qq",
";;<;;%%%3:131211711111121:311715<2isw<whqqwtawO<wwqwrwq;eqq%%$%>",
"+;2wq;>q3333411111==-199::1117,5<2iii<2aaqwwiwiiOwwisrq0rqq;>>;;",
"iwwiwwwq3333219721-1-122::129777w<wssw><qq;wwwisiwwwrreqqqiwi<<6",
"p<OqitqX33344297499221--33999777iwwhsi<<qq+qwwpzawqqqrer++qOpi66",
"54:3341=74221111412799a91142112427299971i2<wiwww7i6+<qws*qtssw26",
"51::33>:999921:-774412471999229gar229999siwasiia6OO+qass%qrsww<i",
"779y33499999921:9421111199992999j9211999si2ssiiip+++wpsi$qqwww<w",
",,4r333a74999921222111119921,:::92111249i<<wi22wpaOwww<q;;><<<<<",
"oo1&&&&:12499999111,-114211-11,121112111w;+<w<;<wlsw<+++;+;;;;;;",
"=,::&&::1121799911--:19911-199991111921:w;<2w<<w+qss2<Oi;;++;;q%",
"574344319911129991:--119921199g972142212i<;ww2<<;qispippi<+;qqqq",
"8713y44:g911=:11991:,124d974491=g9111999w;+<w<<<qqwpspp7p7<;wrrr",
"3>qert0*333494,:44499499yy491,Oo>r2:;isi;;2iw;;w19d99999+X+ahsis",
"3>>*>*%$33>:21,12114194913311,,,2aw<<wsi>;wiw;>w4ag91111;;<qq<wh",
"yr>>>>>*4331111113141441::111115waaw>wisw<<wi2wi19a2111-www<+X<h",
"reeqqwqq3444447211114114:11172522asiw<iswwwsiwws-1711492iwww>;wh",
"$;;>rwq;&3yy9471::11113119772224wiss2;wiwwqiiwwi-1211991w<wiiwwi",
";+>wrrw;#&441-11:111111489999422awis2;;w>-;wi<>;1941242->X;waiw<",
"wqwwsarw&&3:==1711111141557994>>sw<iw;X>;+;wsw;;121122<+;;<ww<>w",
"w<;;>w2<33:=#=4g13414414,5,741>>s><ww;X;<;<sks<;==-=172-><ssw;<a",
"qrstw>%;q>wrw;;ia2<isw<2<<<<<<2<<wiw>+wiiiw22ww2-;<<<<;;ii2>;<ww",
";wlxfrw>>*>w2-+is<<isiw2www<22w>wwsw<;>wsi<<2wii22wiiiiwsww<<q2w",
">>ttrw>>>>qww<<7i<;iw2<wqww<<<;<wisw<;<wiw<>wissw2222wwiiwwwq<ww",
"st>-$%>wqqrsai<w<+;2w;;<222<<;<;iaiw<><w2<<wiiai<<<;><2wiwwwwwwi",
"fsw>;>rrwwtwiii<<;;2w;2wwiww<22wsaiww><w;<wigsi2w2<2<wwiwwww2iww",
">>>rttq>qqq;qip+w<wsaw2siisisiiawwwwwwww<<wssa2;<<<<<<<w<w<<w2<w",
".$;rsr>XqqqX+wi+<2wsa2agwiiiiisswwwwwaiaiiwiww2:;;;;2<2;+<<q2ww<",
"eqqwtr>;rwq+;api;-<iw<>g<<<wwwiiww<wwisaksw<222><wwiwwww;;;<w<q<",
"979991==-#::19721119g219qqwwi<Owqe;0q0qq33343333<+qretqq221111:1",
"1111991:1-==112;974gd499ttwwwqw+>qqqqqqq34444r43;qwweqqq22212111",
"4::,989,44:,<22<91299212stwwwOww;>><w<>w3449r444w2wwtqqq77221222",
"75:5985=71::2iss42121111qqqqwaps;<2wwww<44444443aalttttqw2222122",
"751,571=71--<wii99992722+%%;wwipiOw676i<1112222194rrweeq92111499",
",,,,555541-=-;;;29911422qqqqq<+Oii<w<wii111311:1212>*>qq92111279",
"55755,5511-<<+-+-21=-12<;qqiw<<+paq<;<<i17112111:::;>>qq211-1149",
"5887,=,511<2ii2q247:19i2%%wiaii+slw;;<qw11792721222>qqrr411-=129"
};
