/* XPM */
static char *ab6d003579da4299fb364f42c5c3e1d0rsTwreeRDz4ODZAc[] = {
/* columns rows colors chars-per-pixel */
"64 64 122 2 ",
"   c #2D241D",
".  c #30251D",
"X  c #31291E",
"o  c #302520",
"O  c #352B23",
"+  c #392E26",
"@  c #362E29",
"#  c #3B2E28",
"$  c #373027",
"%  c #3A3126",
"&  c #373129",
"*  c #3C332B",
"=  c #3E392F",
"-  c #3E3631",
";  c #3F3A30",
":  c #40362E",
">  c #42382E",
",  c #413632",
"<  c #493530",
"1  c #443B32",
"2  c #493F36",
"3  c #423C38",
"4  c #483E38",
"5  c #494136",
"6  c #47413C",
"7  c #4D433B",
"8  c #4E493F",
"9  c #51463E",
"0  c #51493E",
"q  c #4E4340",
"w  c #4F4944",
"e  c #504641",
"r  c #544B43",
"t  c #594E45",
"y  c #584E49",
"u  c #565147",
"i  c #5A5146",
"p  c #5C534B",
"a  c #5D5752",
"s  c #5E5952",
"d  c #604C47",
"f  c #60564E",
"g  c #61594E",
"h  c #655B53",
"j  c #695F56",
"k  c #695E59",
"l  c #6A6056",
"z  c #676158",
"x  c #6C635A",
"c  c #6F685D",
"v  c #71665E",
"b  c #72685E",
"n  c #736761",
"m  c #746B62",
"M  c #796E66",
"N  c #777067",
"B  c #7A7165",
"V  c #77726A",
"C  c #7D736B",
"Z  c #7D7770",
"A  c #7F7A70",
"S  c #81766E",
"D  c #837A6E",
"F  c #827670",
"G  c #857B73",
"H  c #897E76",
"J  c #867E78",
"K  c #887E78",
"L  c #8A8176",
"P  c #878278",
"I  c #8D837A",
"U  c #8E897F",
"Y  c #91867E",
"T  c #91887E",
"R  c #8F8780",
"E  c #918781",
"W  c #958B83",
"Q  c #998E86",
"!  c #9A8F89",
"~  c #959086",
"^  c #9A9187",
"/  c #9D938B",
"(  c #9F9790",
")  c #A1968E",
"_  c #A49A8E",
"`  c #A29791",
"'  c #A49B92",
"]  c #A99E96",
"[  c #AB9F9A",
"{  c #B29F9A",
"}  c #A7A095",
"|  c #ABA196",
" . c #A7A198",
".. c #ACA39A",
"X. c #AFA89E",
"o. c #B1A69E",
"O. c #B2A99E",
"+. c #AEA4A0",
"@. c #AFAAA0",
"#. c #B2A6A1",
"$. c #B8A5A0",
"%. c #B4ABA2",
"&. c #B9AEA5",
"*. c #B6AEA8",
"=. c #BBAEA8",
"-. c #B7B0A7",
";. c #BBB1A6",
":. c #BCB3AA",
">. c #BEB9AF",
",. c #C2AFA6",
"<. c #C2AEA8",
"1. c #C0B0A5",
"2. c #C1B5AD",
"3. c #C2B9AE",
"4. c #C4B7B0",
"5. c #C4BAB2",
"6. c #C9BEB4",
"7. c #CFBEB8",
"8. c #CBC1B6",
"9. c #CBC2B9",
"0. c #D0C7BC",
"q. c #D3C8C1",
/* pixels */
"I ..X.#...o.%.&.;.%.o.[ ..X...X.*.W 0 #.&.;.3.5.8.8.8.3.;.;.;.;.3.3.;.T 3.8.L % S 2.O.O.O.O...#.#.#.@.#.+.+.*.=.=.#.| ' O.o.o.r ",
"C ' X.o.#.#.%.&....... .#.#.o.%.=.F 7 &.>.>.3.5.3.O.O.3.;.;.;.;.;.;.;.| 3.3.T > B 2.| | | | O.%.%.%.#.%.[ +.+.#.*.*.%.&.O.&._ 9 ",
"l ) %.#.%.%.#.o.=.#...] ........' l 7 #.2.2.:.;.O._ _ O.;.;.;.1.;.;.;.O.3.3.T 5 0 ;.o.o.O.o.#.#.#.%.*.#.=.=.*.*.*.*.=.,.2.;.G > ",
"2 H ` ' / Q W E F M h y r r 9 r 7 + > O.4.:.&.%._ _ _ _ ;.;.;.1.O.;.;.O.3.T T 5 5 T O.;.X.o.O.X.#.+.#.+.*.#.[ [ ' ` W T ^ Y 0 > ",
"+ * , 4 + + 2 * * 4 r h v S S n y > * Q %.%.O.O.O.O.O.O.| 1.3.1.>.;.;.;.O.1.T i % f b b f 9 7 7 y y y y y q 2 3 1 1 : : : : % : ",
"I H C N h 1 # = p / ' =.2.2.2.:...C > F %.%.O.X.O.O.| O.O.O.O.O.O.O.O.;.O.O.T 0 : 5 L ^ W / T Y J q # 1 - y a x b m B D D L T T ",
"2.4.4.4.&.I r * m ..%.*.&.&.=.&.3...8 N X.%.@.X.O.O.O.O.O.O.O.O.O.O.O.O.O.O.T 0 2 ] 0.5.2.2.3.3.5.' z : J =.=.6.6.3.1.;.O.O.3.6.",
"=.;.;.>.;.%.n * l &.;.=.@.5.5.#.-...8 s %.@.X.X.O.O.| O.O.| | O.O.-.;.O.| ;.T 0 B -.:.o.;.%.-.-.#.=.I , ` 4.*.#.&.-.;.;.1.;.;.O.",
"*.=.:.4.6.5.G O M =.' #.;.=.;.:.-.} ; s } } X.@.X.X.O.-.` ] ..o.3.;.@.} #.+./ 2 F 5.&.&.;.;.;.;.X.8.G 5 ' 3.3.O.%.;.;.&.;.;.:.:.",
"=.=.:.:.4.4.H + C :.#.>.:.>.>.:.>.~ & c }  .....;.-.O...O.#.&.&.3.;.X.| #.&.' 7 F 5.-.:.3.1.;.;.:.3.b r ..:.-.O.| -.2.2.;.:.:.:.",
"&.;.:.:.;.>.H * G &.%.=.-.*.*.*.-.R $ V X. . . .| X.%.-.2.=.*.=.%.O.X.| ....' r S 3.&.-.;.;.;.O.&.=.l l :.&.;.O.;.2.;.O.;.>.;.:.",
"*.;.:.:.=.>.H : R %...' .. ... .@.~ = N @.X.} ( %.%.#.@.;.&.#.o.....X.X...! E p M -.| o.o.o.o.o._ &.l S 2.O.O.O.O.;.3.:.;.;.:.;.",
"%.#.#.X...=.E * I &.'  .*.&.*.%.>.R = s } -.@.@.-.@... .$.#.*.*.X.o.o.o.$.o.) d l %.O.] &.O.o.| | :.b T ;.O.O.| O.O.%.O.%.O.O.O.",
"%.#.#.o...&.E * V =.:.&.@.#.%.@.-.P = = A (  .-.:.;.-.@.#.#.*.*.#.%.=.2.[ ) S < v &.| O.&.O.O.O.%.] l W ;.O.O.| %.O.O.O.%.%.;.O.",
"#.#.#.X.o.&.Y * j / X.' ......X.@.c & & = p z m A D P P K E T T / W H S h 4 , O r ' ..[ ] ^ L S g 0 : L O.O.| O.O.O.O.O.O.%.O.%.",
"%.X.#.O...&.Y * * y n x u p u u p ; ; ; ; w 8 8 0 5 = $ : , 2 2 r 7 2 < 2 2 2 < O 2 i i 5 2 % X : % % L ;.O.O.;.O.O.O.O.O.O.O.O.",
"..X.o.o.#...H : J W Q I W I C M z k N U ] X.%.-.;.( I a # r o.&.O.O.O.| o.o._ j + r ' o.' E H W _ f + m %.=...&.O.O.#.O.#.O.#.%.",
"....o.O. .%.C 2 ..;.5.5.5.:.&.#.@.;.*. .+.#.-.>.4.5.:.C O H 1.&.4.4.,.4.2.1.4.) > Y 5.&.&.=.:.*.3.] 2 9 %.=.#.#.o.@.#.#.#.#.#.%.",
" ...o.#...X.h h 6.:.#.#.4.>.=.=.:.>.*.' *.-.>.:.X.>.3.Y % T 6.o.1.1.4.5.&.O.,.O.2 H ;.&.=.>.%.' ..%.y : H ' #.%.X.o.#.X.@.O.O.#.",
"....o.#.=.) 2 F =.[ ' @.*.=.;.>.>.%.#.;.:.:.-.:.X...&.' 9 S 9.o.O.&.2.5.7.1.O.4.9 G 6.X.;.=.=.%.2.&.l + 7 C ' :.o.X.o.#.o.X.O.%.",
"h m x m S h 9 ! #.%.;.;.=.%.%.%.-.-.-.-.%.@.X.@.@.%. .Q > v 9.O.1.2.2.2.,.1.4.1.< L 6.| #.&.;.>.&.4.I   , + 7 x I H H H I C n M ",
"O O 7 e * : + f m C H I / ` [ #.@...( / ~ ~ Q Q ' X. .! > b 6.&.1.2.1.1.1.,.<.O.7 T 6.| &.=.:.:.#.6.T * 9 V f 7 9 9 9 9 e %   + ",
"* l  .%.[ ) G M f p e 2 7 9 r p p u 7 5 6 6 5 1 1 7 9 > : B :.;.&.,.&.&.o.O.O.| 0 L 6.O.=.=.=.&.#.6./ 4 D 6.&.[ ......../ [ G 1 ",
", ` 6.:.4.>.6.6.2.;.&.%...] ' '  .P s 5 c m m m j m B b : D &.>.O.O.&.O.o.| O.| d Y 6.1.>.:.&.%.%.9.' 7 ] %.5.5.:.2.:.>.5.9.[ l ",
"9 ..=.o...%.&.:.5.5.5.:.>.2.2.2.8.:.m u ' :.5.:.0.>.-. .u G *...O.o.| ] &.O.O.O.h G 5.2.2.>.:.:.&.7.` p  .#.>.@.=.:.:.;.:...#.V ",
"9 ..&.o.o.#.&.&.%.=.:.:.:.;.:.>.-.>.c p @.-.:.-.*.-.:.>.p h :.@._ ] O.;.O.O.] 1.h x 2.>.2.:.2.=.;.6.' t %.#.#.%.%.%.%.%.[ ' =.H ",
"9 ..=.X.&.&.%.o.X.@.#.&.&.&.%.;.%.@.u x >.-.@.-.*.*.>.9.p 8  .&.1.;.;.:.O.$.&.T e l 2.&.=.%.*.%.%.5./ r / &.#.:.=.-.&.=.:.%.2.H ",
"9 ..&.X.>.-.#...o.#.&.&.&.%.%.O.:./ * P 8.-.X.-.-.-.:.:.p $ 1 u d l b B S S f 5 # m :.o.X.......+.;.T 7 S  .F p k k l l p f C e ",
"4 M / / / ' ) [ ! W L D L D D C Z p 1 U >.-.*.:.-.-.-.-.u * p h h h f r 9 1 9 1 , b =.&.&.#... ...*.H * ; 7 u k l z x x l f 7 , ",
"v y 7 r , , 7 9 * % 1 i d i 0 0 &   $ M %.-.:.-.-.-.%.-.r x 3.-.:.4.2.&.o.2.5.' 4 l &.#.X.X.O.%.@.&.R 1 & N :.%.;.=.=.*.9.;.' ! ",
"=.#.] ' ) h O * m Y ) _ X.| _ _ N w $ z @.&.-.-.-.-.-.*.u m >.>.=.4.4.2.2.2.%.<.p h %.]  .%.%.#.@.%.} w * @.;.*.:.:.:.:.[ o.;.2.",
">.=.2.9.9.H + D -.O.O.2.2.;.;.%.>.C * r #.@.*.%.-.-.*.-.r h ..#.#.:.4.2.=.&.] =.j g %.` ..%.#...-.%.@.p r %.5.*.=.:.;.&.&.=.>.5.",
"O.#.:.2.2.H * _ 2.%.;.3.3.2.;.&.:.C # q ` +.[ #.=.$.O.| 0 t 2.O.2.:.<.2.$.=.,.2.j t %.o.&.%.:.X.X...-.C 0 X.;.@.O.;.>.>.O.3.3.O.",
"' o.:.5.:.D : ] ;.;.O.;.5.;.#.] %.x o 4 ' +.+.%.%.O.O.O.f r 1.O.=.=.,.=.=.=.2.4.M p &.%.#...:.X.X...%.P 0 | ;.@.O.@.O.;.O.;.;.O.",
"&.#.o...;.N 5 | 2.;.} O.5.:.o.] %.h   y [ %.#.=.O.o.O.O.l 0 O.O.%.%.%.&.[ o.#.$.G y #.%.X.' *.*.X.| X.C 0 X.;.O.O.@.@.O.;.@.O.O.",
"..X...o.=.m 9 | ;.3./ ..3.3.:.&.=.k @ k [ *.*.:.o.O.O.1.b 0 | O.%.$.%.$.o.#.&.=.F 0 '  . ./ %.%.X.X.X.c 8 X.;.O.;.@.| | O.| | ;.",
"X...[ ' ;.V 7 O.;.;.;.&.3.;.3.2.4.C @ x &.=.......#.%.O.0 * _ O.#...#.;.%.[ ..O.x - ' &.X.X.O.;.;.X.-.0 5 T @.| O.O.| | ;.O.O.O.",
"&.%.#.o...i : _ :.:.2.;.%.-.-.:.4.I * q ! [ [ [ ..o.) D 5 : D ;.X.-.>.-.&.>.;...p O H #.X.X.X.| X.} } 0 $ B @.;.1.O.O.O.| O.O.;.",
"v l k h 7 O X D ;.;.;.;.| ..#.&.4.E # = : y y 9 1 > : + = * 5 B C H P P U W C p = & $ 8 5 8 5 0 5 = 5 % X 5 B T T L l i 0 0 0 g ",
"H H F S x g X l ..o.O.../ ' O.&.:.H O 2 H ' W D H v l S A B p 0 , = 1 7 q u q 1 5 = = 5 h c B L P L h 0 0 8 8 0 0 0 g g b b D L ",
"=.=.<.:.5...r h X.O.O.O.O.O.O.o.:.Q * W 2.6.7.6.8.3.;.:.2.;.;.;.X.X. .( ..:.( a @ , m / O.3.3.8.8.3.>.%.] | | | | 1.8.O.8.8.6.3.",
") { =.6.6.>.x h %.O.%.O.O.O.O.X.-.^ 2 | 4.>.&.#.&.;.;.3.;.;.;.;.5.:.-.:.:.>.@.( q e ( 6.3.8.} | X.X.;.9.3.3.3.3.1.| _ O.6.,.O._ ",
"<.<.<.2.>.:.x a X.O.O.O.O.O.O.O.;.) 2 | -.O.....O.;.;.-.;.;.&.;.&...X.;.4.=.=.>.n q [ :.;.;.| | ;.8.3.;.:.2.1.;.1.1.1.;.4.,.,.,.",
"<.<.%.#.*.@.p u X.X.X.O.O.O.O.O.;.W % T &.%.;.%.&.&.;.;.-.;.&.O.o.' ' >.#...+.%.Z q +.:.O.;.O.1.3.;.:.:.;.;.;.1.1.3.3.;.1.,.,.4.",
"o.O.#.$. .;.a y #.@.%.-.] ..o.&.;.I 7 ^ 2.O.X.o.| | O.;.;.;.&.O.#.#.&.:.#.o.O.%.Z , / #.#.O.O.O.O.O.X.O.{ ] | | O.O.O.O.O.O.O.O.",
"{ { %.&.;. .u z &. .| #.....| | O.L 1 B O.o.O.O.O.&.;.;.O.O.O.;.&.%.#.%.X.#.#.o.M # W _ o.o.| | ;.@.O.O.| | o.O.O.1.$.1.,.4.,.,.",
"{ ] o...#.( 4 n %.o.%.&.o.#.O.O.O.D : 7 T | O.;.;.;.;.%.O.O.........X.%.#.:.>.%.n # K O.O.;.O.;.;.O.O.O.,.,.1.O.1.O.$.O.$.$.$.O.",
"$.{ ' / W z = 7 V W ' / W G b g 0 5 % % 5 b L L T Y H D B x p 9 7 r f n n D S n 3 , r j B B B B L B B B D L ) { o.O.O.O.O.O.$.O.",
"9 < < : * * 4 7 g u 7 7 * * * # 1 1 , > 1 : , 1 : , * + + e p y y 9 , = = % * : 5 5 0 g g 0 0 0 5 5 5 O O , * > t t d f t f d 9 ",
"n S G I m 7 O h :.o./ W W W W W Q Q ! ! [ ] ] ] O./ l O p &.;.>.2.&.o.X./ ) ) / | O._ O.;.O.O.;._ T D c 2 * y m b m M C M C m v ",
"2.2.=.:...C O M 2.4.5.6.5.4.>.:.>.:.>.;.:.:.:.=.6.>.) 7 n 5.:.:.5.>.=.;.:.&.-.3.3.1.;.3.8.;.O.| :.;.^ T r 7 &.4.<.2.4.6.5.<.=.<.",
":.2.:.=.3.#.6 x >.;.=.=.:.:.=.;.&.=.=.&.&.-.&.:.2.6.:.p H 2.#.%.2.=.=.:.2.] ] :.;.;.1.0.O.O.O.O.2.;.;.X.6 m 6.4.#.$.=.=.4.o.o.&.",
"[ o.%.=.&.&.h h 4.;.&.%.%.%.=.:.4.4.4.>.=.&.o...=...;.p J ..' [ #.:.>.#.O.;.%.;.;.;.8.8.;.;.:.:.2.;.%.^ 1 T 4. .] ..&.>.*.&.=.&.",
"o.o.%.&.#.>.n f %.%.#.%.%.@.[ ] %.%.#.&.%.%. .[ =.%.&.p x %.....%.&.&.%.O.X.O...O.O.} _ -.;.;.;.%.%.-._ r ' &.@.#.o. .X.o.#.o.#.",
"$.%.#.o.&.;.C p #.#.%.:.:.=.#.@...#.X.#.&.%.o...#.;.#.h y ' &.2.%.o.o.o.O.O.O.O.| O._ _ %.%.%.%.X.X.O.^ p ( %.%.;.%.@. .....X.X.",
"=.%.#. .) H r , x M C G F G H H W W W W ] ' / / W ) I 1 # h '  .%.[  .#.;.;.O.O.O.O.;.;.%.O.O.#.%.X.X.U 7 P *.*.:.>.:.-.*.*.*.&.",
"C j z y 7 , * o + , 4 * 1 2 1 + O * * : 1 2 7 r r 7 , * : : , 4 p p p p p k m H ^ _ ' / ~ ^ / ~ E V a w - q a V Z J R ~ P P A Z ",
"> , r u r h Z Q ' ' [ ] o.] W C 9 , : 9 H W / / / / W I H C l f p t p p p 9 o * 7 0 > 4 0 e e w - - & & ; - & & O @ & & & & $ = ",
"9 Q =.#.%.&.*.=.>.:.>.6.&.:.:.#.I , * G :.2.5.2.2.>.:.=.6.5.2.:.%.o.o.#.o.Y 2 : + 4 M I | ] | ] ( ( W E E ( ] +.( R m h 5 * & 5 ",
"C >.6.;.;.=.;.:.#.] [ :.=.5.6.2.;.l +  .-.&.%.#.&.=.=.>.:.;.&.&.=.:.;.:.:.5.K O 7 [ q.5.5.>.>.2.6.>.>.5.#.>.4.&.>.>.:.=.' M 7 = ",
"! 2.>.2.:.:.;.=.#.#.#.#.>.>.=.:.%.F , #.:.%.*.4.:.=.:.:.>.:.:.>.=.>.5.=.:.:./ 2 h 2.=.#.&.2.<.4.*.&.%.&.2.2.=.:.o.<.4.4.=.:.M . ",
"' 4.%...;.;.:.:.:.:.:.;.=.&.%.#.&.H 7 #.0.>.=.;.:.:.:.:.2.&.#.[ #.:.5.=.2.=./ 4 l 4.&.&.=.=.$.o.:.2.2.<.1.1.,.,.{ <.4.7.2.=.E : ",
"/ 2.o.[ #.-.:.;.:.:.:.;.:.%.X.[ &.W r #.:.#.'  .:.=.;.:.4.*.X.[ ..;.2.;.:.:./ 1 C 5.%.,.&.$.O.O.2.1.2.,.,.1.,.<.<.<.<.<.<.<.{ < ",
"I %.#.#.X.#.;.:.#.X.O.#.#.#.o.] &./ p #.&.#.#.=.:.:.:.:.2.:.:.:.=.>.&.&.:.:./ 2 D 6.%.2.O.&.1.4.O.,.$.%.1.1.,.<.<.<.<.<.,.<.$.d "
};
